<?xml version="1.0" encoding="utf-8"?>
<!-- Generator: Adobe Illustrator 24.0.1, SVG Export Plug-In . SVG Version: 6.00 Build 0)  -->
<svg version="1.1" id="Layer_1" xmlns="http://www.w3.org/2000/svg" xmlns:xlink="http://www.w3.org/1999/xlink" x="0px" y="0px"
	 viewBox="0 0 200 124" style="enable-background:new 0 0 200 124;" xml:space="preserve">
<style type="text/css">
	.st0{fill:#FFFFFF;}
	.st1{fill:#BFBFFF;}
	.st2{fill:#0000FF;}
	.st3{fill:#4040FF;}
	.st4{fill:#8080FF;}
</style>
<rect x="170.36" y="0.16" class="st0" width="29.64" height="123.65"/>
<path class="st1" d="M175.04,70.61l-0.48-0.1l-0.17-0.03h-0.07l0.24-0.14c14-10.62,24.07-34.14,25.27-61.89
	c0.07-1.14,0.1-2.28,0.1-3.45c0.03-0.76,0.04-3.94,0.06-4.83h-14.92c-0.03,0.89-0.03,4.07-0.06,4.83c0,1.17-0.03,2.31-0.1,3.45
	c-1.21,27.76-11.28,51.27-25.27,61.89l-0.24,0.14h0.07l0.17,0.03l0.48,0.1c8.52,2.97,13.65,11.03,16.34,22.58
	c3.69,15.58,6.31,26.27,8.58,30.62l14.92,0c-2.28-4.34-4.9-15.03-8.59-30.62C188.7,81.64,183.56,73.58,175.04,70.61z"/>
<path class="st2" d="M102.08,93.22c3.69,15.59,6.31,26.27,8.59,30.62L0,123.81L0.03,0.17l110.67,0.02
	c-0.03,0.89-0.03,4.07-0.06,4.83c0,1.17-0.03,2.31-0.1,3.45c-1.21,27.76-11.28,51.27-25.27,61.89l-0.24,0.14h0.07l0.17,0.03
	l0.48,0.1C94.25,73.6,99.39,81.67,102.08,93.22z"/>
<path class="st0" d="M100.65,70.63l-0.48-0.1L100,70.5h-0.07l0.24-0.14c14-10.62,24.07-34.14,25.27-61.89
	c0.07-1.14,0.1-2.28,0.1-3.45c0.03-0.76,0.04-3.94,0.06-4.83h-14.92c-0.03,0.89-0.03,4.07-0.06,4.83c0,1.17-0.03,2.31-0.1,3.45
	c-1.21,27.76-11.28,51.27-25.27,61.89l-0.24,0.14h0.07l0.17,0.03l0.48,0.1c8.52,2.97,13.65,11.03,16.34,22.58
	c3.69,15.58,6.31,26.27,8.58,30.62l14.92,0c-2.28-4.34-4.9-15.03-8.59-30.62C114.31,81.67,109.17,73.6,100.65,70.63z"/>
<path class="st3" d="M115.62,70.62l-0.48-0.1l-0.17-0.03h-0.07l0.24-0.14c14-10.62,24.07-34.14,25.27-61.89
	c0.07-1.14,0.1-2.28,0.1-3.45c0.03-0.76,0.04-3.94,0.06-4.83h-14.92c-0.03,0.89-0.03,4.07-0.06,4.83c0,1.17-0.03,2.31-0.1,3.45
	c-1.21,27.76-11.28,51.27-25.27,61.89l-0.24,0.14h0.07l0.17,0.03l0.48,0.1c8.52,2.97,13.65,11.03,16.34,22.58
	c3.69,15.58,6.31,26.27,8.58,30.62l14.92,0c-2.28-4.34-4.9-15.03-8.59-30.62C129.27,81.65,124.14,73.59,115.62,70.62z"/>
<path class="st0" d="M130.49,70.61l-0.48-0.1l-0.17-0.03h-0.07l0.24-0.14c14-10.62,24.07-34.14,25.27-61.89
	c0.07-1.14,0.1-2.28,0.1-3.45c0.03-0.76,0.04-3.94,0.06-4.83h-14.92c-0.03,0.89-0.03,4.07-0.06,4.83c0,1.17-0.03,2.31-0.1,3.45
	c-1.21,27.76-11.28,51.27-25.27,61.89l-0.24,0.14h0.07l0.17,0.03l0.48,0.1c8.52,2.97,13.65,11.03,16.34,22.58
	c3.69,15.58,6.31,26.27,8.58,30.62l14.92,0c-2.28-4.34-4.9-15.03-8.59-30.62C144.14,81.64,139,73.58,130.49,70.61z"/>
<path class="st4" d="M145.4,70.61l-0.48-0.1l-0.17-0.03h-0.07l0.24-0.14c14-10.62,24.07-34.14,25.27-61.89
	c0.07-1.14,0.1-2.28,0.1-3.45c0.03-0.76,0.04-3.94,0.06-4.83h-14.92c-0.03,0.89-0.03,4.07-0.06,4.83c0,1.17-0.03,2.31-0.1,3.45
	C154.07,36.2,144,59.71,130,70.33l-0.24,0.14h0.07l0.17,0.03l0.48,0.1c8.52,2.97,13.65,11.03,16.34,22.58
	c3.69,15.58,6.31,26.27,8.58,30.62l14.92,0c-2.28-4.34-4.9-15.03-8.59-30.62C159.06,81.64,153.92,73.58,145.4,70.61z"/>
<path class="st0" d="M160.32,70.61l-0.48-0.1l-0.17-0.03h-0.07l0.24-0.14c14-10.62,24.07-34.14,25.27-61.89
	c0.07-1.14,0.1-2.28,0.1-3.45c0.03-0.76,0.04-3.94,0.06-4.83h-14.92c-0.03,0.89-0.03,4.07-0.06,4.83c0,1.17-0.03,2.31-0.1,3.45
	c-1.21,27.76-11.28,51.27-25.27,61.89l-0.24,0.14h0.07l0.17,0.03l0.48,0.1c8.52,2.97,13.65,11.03,16.34,22.58
	c3.69,15.58,6.31,26.27,8.58,30.62l14.92,0c-2.28-4.34-4.9-15.03-8.59-30.62C173.97,81.64,168.84,73.58,160.32,70.61z"/>
<g>
	<path class="st0" d="M23.57,13.8c7.31-1.47,17.81-2.4,27.71-2.4c15.3,0,25.38,2.91,32.33,9.18c5.51,4.88,8.75,12.48,8.75,21.21
		c0,14.65-9.36,24.4-21.03,28.43v0.4c8.51,2.98,13.65,11.03,16.36,22.59c3.67,15.59,6.31,26.26,8.58,30.62H81.33
		c-1.75-3.23-4.27-12.74-7.33-26.71c-3.31-15.27-9.34-21.2-22.39-21.63H37.97v48.34h-14.4V13.8z M37.97,64.58h14.72
		c15.42,0,25.19-8.4,25.19-21.18c0-14.49-10.45-20.79-25.65-20.81c-6.99,0-11.82,0.64-14.26,1.27V64.58z"/>
</g>
</svg>
